/vscmnt/brussel_pixiu_data/_data_brussel/112/vsc11236/PredSimResults/SUBJ04opt3D/expIG/worker_03.mot
version=1
nRows=10
nColumns=50
inDegrees=yes
endheader
                time	         pelvis_tilt	         pelvis_list	     pelvis_rotation	           pelvis_tx	           pelvis_ty	           pelvis_tz	       hip_flexion_r	     hip_adduction_r	      hip_rotation_r	        knee_angle_r	       ankle_angle_r	         mtp_angle_r	       hip_flexion_l	     hip_adduction_l	      hip_rotation_l	        knee_angle_l	       ankle_angle_l	         mtp_angle_l	    lumbar_extension	      lumbar_bending	     lumbar_rotation	 ercspn_r/activation	 intobl_r/activation	 extobl_r/activation	    abd_r/activation	    add_r/activation	hamstrings_r/activation	bifemsh_r/activation	glut_max_r/activation	iliopsoas_r/activation	rect_fem_r/activation	  vasti_r/activation	gastroc_r/activation	 soleus_r/activation	tib_ant_r/activation	 ercspn_l/activation	 intobl_l/activation	 extobl_l/activation	    abd_l/activation	    add_l/activation	hamstrings_l/activation	bifemsh_l/activation	glut_max_l/activation	iliopsoas_l/activation	rect_fem_l/activation	  vasti_l/activation	gastroc_l/activation	 soleus_l/activation	tib_ant_l/activation	
          0.82059275	         -1.32378138	         -3.73935591	        -10.95616401	          0.65647420	          0.87255080	          0.00423443	        -15.89359904	          3.14550032	         -7.26500951	         -5.24789405	         14.80274391	         18.20865816	         31.33750453	         -5.60034588	         -8.35455680	        -12.58900199	          2.19573169	          0.22696242	        -13.22773411	         12.56686234	         -3.60303930	          0.00999999	          0.00999999	          0.00999999	          0.04684581	          0.00999999	          0.01164322	          0.19110263	          0.00999999	          0.03771530	          0.00999999	          0.00999999	          0.20956841	          0.21119711	          0.01231450	          0.01268038	          0.11186432	          0.08103768	          0.00999999	          0.17899835	          0.05635486	          0.09688450	          0.01169435	          0.17380330	          0.05433332	          0.02384710	          0.01692218	          0.01536430	          0.28762987	
          0.83700461	         -1.52183892	         -3.22322916	        -10.76418357	          0.67322035	          0.87016991	          0.00483538	        -16.35189034	          2.52827881	         -7.98530725	         -5.97684870	         14.64868234	         19.74132796	         31.08681304	         -5.07824423	         -9.00942494	        -13.64012425	          1.92927040	          0.22087531	        -12.56507396	         11.09448594	         -3.37862077	          0.00999999	          0.00999999	          0.00999999	          0.03678420	          0.00999999	          0.01000000	          0.15005732	          0.00999999	          0.02961475	          0.00999999	          0.00999999	          0.18266102	          0.21843819	          0.00999999	          0.00999999	          0.12765694	          0.06363229	          0.00999999	          0.15230253	          0.06523338	          0.07607550	          0.04460685	          0.13647356	          0.04266353	          0.01872519	          0.01328761	          0.01206433	          0.31280599	
          0.85341646	         -1.69619987	         -2.63103965	        -10.50208513	          0.69037918	          0.86821962	          0.00529507	        -16.70553878	          1.82098296	         -8.79558204	         -6.96207131	         14.33594768	         21.38056530	         30.83918705	         -4.51281450	         -9.75618509	        -14.64434557	          1.42838048	          0.20714005	        -11.87583814	          9.50730436	         -3.12119854	          0.00999999	          0.00999999	          0.00999999	          0.02888363	          0.00999999	          0.01345278	          0.11782778	          0.00999999	          0.02325405	          0.00999999	          0.00999999	          0.14342881	          0.21793285	          0.00999999	          0.01000000	          0.10023859	          0.04996525	          0.01589088	          0.14537094	          0.06597538	          0.05973589	          0.03502612	          0.10716156	          0.03350019	          0.07114123	          0.01043368	          0.00999999	          0.33898773	
          0.86982832	         -1.84744498	         -1.97142661	        -10.17171648	          0.70775225	          0.86695120	          0.00556445	        -16.87331422	          1.01653898	         -9.69587369	         -8.32465016	         13.81130090	         23.13390823	         30.61407018	         -3.91215515	        -10.69838329	        -15.72748860	          1.04501793	          0.18699108	        -11.19239701	          7.82453711	         -2.83131411	          0.00999999	          0.00999999	          0.00999999	          0.02267996	          0.00999999	          0.01439195	          0.09252055	          0.01533152	          0.01825951	          0.00999999	          0.02268058	          0.11262295	          0.20306018	          0.00999999	          0.01601391	          0.07870919	          0.03923363	          0.02354477	          0.11840934	          0.06579531	          0.04690572	          0.02750316	          0.08414524	          0.02630497	          0.12166105	          0.00999999	          0.00999999	          0.35393407	
          0.88624017	         -1.97706041	         -1.26923625	         -9.77874820	          0.72523875	          0.86654440	          0.00562372	        -16.82543232	          0.12721185	        -10.68204294	        -10.09754981	         12.98663342	         25.00914625	         30.32465229	         -3.27259407	        -11.76449530	        -16.76357938	          0.86089003	          0.16885038	        -10.53504335	          6.08227700	         -2.51010612	          0.01681930	          0.00999999	          0.00999999	          0.01780872	          0.00999999	          0.01913314	          0.07264884	          0.01915598	          0.01433771	          0.00999999	          0.04090576	          0.08843362	          0.16658852	          0.00999999	          0.02200819	          0.06180391	          0.03080697	          0.04034826	          0.09297721	          0.06375569	          0.03683124	          0.02159599	          0.06607240	          0.02065515	          0.15897023	          0.00999999	          0.00999999	          0.35239312	
          0.90265203	         -2.08650021	         -0.55266117	         -9.33504465	          0.74274272	          0.86708810	          0.00546168	        -16.55666222	         -0.83253180	        -11.73766603	        -12.27116398	         11.80441852	         26.95772752	         29.90386862	         -2.56916422	        -12.77058690	        -17.62579184	          0.85863840	          0.15632875	         -9.92006581	          4.32004135	         -2.15213571	          0.03813889	          0.00999999	          0.00999999	          0.01398374	          0.01000000	          0.04904433	          0.05704521	          0.02866316	          0.01125823	          0.00999999	          0.05119163	          0.06943971	          0.13080838	          0.00999999	          0.02592895	          0.04852957	          0.02419021	          0.05361260	          0.09604480	          0.06429625	          0.02892057	          0.02433164	          0.05188127	          0.01621880	          0.17189278	          0.00999999	          0.00999999	          0.34244082	
          0.91906388	         -2.17589002	          0.13953443	         -8.85106838	          0.76022183	          0.86851529	          0.00507938	        -16.08444744	         -1.83386536	        -12.85455595	        -14.80732610	         10.24026636	         28.89671496	         29.31222645	         -1.80303387	        -13.58448058	        -18.24187673	          0.99302621	          0.15815977	         -9.35478285	          2.58890010	         -1.75203958	          0.03050544	          0.00999999	          0.00999999	          0.01098029	          0.08472390	          0.06720545	          0.04479296	          0.02630495	          0.00999999	          0.00999999	          0.04945628	          0.05452534	          0.10271316	          0.00999999	          0.03098300	          0.03810632	          0.01899460	          0.06394182	          0.10655800	          0.07088592	          0.02270897	          0.01997125	          0.04073813	          0.01273530	          0.17724361	          0.00999999	          0.00999999	          0.32174398	
          0.93547574	         -2.24547763	          0.76191146	         -8.33524194	          0.77757643	          0.87068787	          0.00450170	        -15.37406899	         -2.85135916	        -14.00339943	        -17.76735733	          8.33458052	         30.68198804	         28.54628275	         -1.00310378	        -14.12624256	        -18.59714754	          1.24892194	          0.20027994	         -8.85417709	          0.94005752	         -1.31388976	          0.02395343	          0.00999999	          0.00999999	          0.00999999	          0.17602636	          0.08841087	          0.03517226	          0.02065514	          0.00999999	          0.00999999	          0.03883399	          0.04281431	          0.08065227	          0.00999999	          0.03690912	          0.02992178	          0.01638292	          0.07099117	          0.13047603	          0.08016090	          0.01783150	          0.03178950	          0.03198833	          0.01000000	          0.18016035	          0.00999999	          0.00999999	          0.29499951	
          0.95188759	         -2.29532631	          1.26816014	         -7.79450714	          0.79466183	          0.87346213	          0.00376925	        -14.35087540	         -3.86939640	        -15.18205334	        -21.27553264	          6.14404746	         32.10171408	         27.60961791	         -0.22238696	        -14.38793574	        -18.67636734	          1.52952239	          0.31092878	         -8.43721596	         -0.57716684	         -0.84761442	          0.01880868	          0.00999999	          0.00999999	          0.00999999	          0.20655612	          0.08873662	          0.02761791	          0.01621879	          0.00999999	          0.00999999	          0.03049316	          0.03361858	          0.06332965	          0.00999999	          0.04211341	          0.02349514	          0.02065513	          0.08082953	          0.14453637	          0.08659233	          0.01400162	          0.02773430	          0.02511783	          0.00999999	          0.17374975	          0.00999999	          0.00999999	          0.27010153	
          0.96829945	         -2.32432746	          1.61750535	         -7.23192789	          0.81135338	          0.87666500	          0.00293294	        -12.96792279	         -4.88354333	        -16.42219511	        -25.41111026	          3.77768293	         32.77459906	         26.53375883	          0.46723322	        -14.42671579	        -18.53133377	          1.79503860	          0.50076368	         -8.11847946	         -1.92041514	         -0.37062867	          0.01476893	          0.00999999	          0.00999999	          0.00999999	          0.22770354	          0.09241729	          0.02168609	          0.01273530	          0.00999999	          0.00999999	          0.02394379	          0.02639793	          0.04972761	          0.00999999	          0.05433331	          0.01844882	          0.01621879	          0.08811591	          0.15000511	          0.09210977	          0.01099434	          0.04115538	          0.01972298	          0.00999999	          0.16660043	          0.00999999	          0.00999999	          0.24657316	
